<svg width="250" height="88" viewBox="0 0 250 88" fill="none" xmlns="http://www.w3.org/2000/svg">
<path d="M101.172 34.6083C99.6532 33.8472 97.9907 33.1863 96.1844 32.6255C94.3782 32.0648 92.613 31.7844 90.8889 31.7844C88.5079 31.7844 86.599 32.3251 85.1623 33.4066C83.7665 34.4881 83.0687 35.9301 83.0687 37.7326C83.0687 39.0945 83.5202 40.2562 84.4233 41.2175C85.3265 42.1388 86.5169 42.9399 87.9948 43.6208C89.4726 44.3018 91.012 44.9427 92.613 45.5435C94.0087 46.0642 95.3839 46.645 96.7386 47.2859C98.0933 47.9268 99.3043 48.7279 100.372 49.6893C101.48 50.6506 102.342 51.8323 102.958 53.2342C103.615 54.6362 103.943 56.3786 103.943 58.4615C103.943 60.7447 103.348 62.8276 102.157 64.7102C101.008 66.5928 99.3453 68.0749 97.1697 69.1564C94.994 70.2379 92.4077 70.7786 89.411 70.7786C87.4406 70.7786 85.5522 70.5583 83.746 70.1177C81.9808 69.6771 80.3388 69.1163 78.8199 68.4354C77.301 67.7144 75.9463 66.9733 74.7559 66.2123L77.4036 61.6459C78.3889 62.3269 79.5178 62.9878 80.7903 63.6287C82.0629 64.2295 83.3971 64.7302 84.7928 65.1308C86.1885 65.4913 87.5432 65.6715 88.8568 65.6715C90.2526 65.6715 91.6278 65.4312 92.9825 64.9505C94.3782 64.4298 95.5276 63.6487 96.4307 62.6073C97.3339 61.5658 97.7854 60.1839 97.7854 58.4615C97.7854 56.9794 97.3749 55.7577 96.5539 54.7964C95.7739 53.795 94.7271 52.9538 93.4135 52.2729C92.0999 51.5519 90.7041 50.911 89.2263 50.3502C87.8306 49.8295 86.4143 49.2687 84.9775 48.6679C83.5408 48.027 82.2066 47.2659 80.9751 46.3847C79.7435 45.4634 78.7583 44.3418 78.0194 43.02C77.2805 41.6982 76.911 40.0959 76.911 38.2133C76.911 35.9301 77.4652 33.9474 78.5736 32.265C79.723 30.5426 81.283 29.2008 83.2534 28.2394C85.2238 27.238 87.4816 26.6973 90.0268 26.6172C92.9004 26.6172 95.425 26.9576 97.6007 27.6386C99.8174 28.3195 101.767 29.1607 103.45 30.1621L101.172 34.6083Z" fill="#0E58A5"/>
<path d="M107.824 26.8574H113.797V70.2979H107.824V26.8574Z" fill="#0E58A5"/>
<path d="M143.458 34.6083C141.939 33.8472 140.276 33.1863 138.47 32.6255C136.664 32.0648 134.899 31.7844 133.174 31.7844C130.794 31.7844 128.885 32.3251 127.448 33.4066C126.052 34.4881 125.354 35.9301 125.354 37.7326C125.354 39.0945 125.806 40.2562 126.709 41.2175C127.612 42.1388 128.803 42.9399 130.28 43.6208C131.758 44.3018 133.298 44.9427 134.899 45.5435C136.294 46.0642 137.67 46.645 139.024 47.2859C140.379 47.9268 141.59 48.7279 142.657 49.6893C143.766 50.6506 144.628 51.8323 145.243 53.2342C145.9 54.6362 146.229 56.3786 146.229 58.4615C146.229 60.7447 145.633 62.8276 144.443 64.7102C143.294 66.5928 141.631 68.0749 139.455 69.1564C137.28 70.2379 134.693 70.7786 131.697 70.7786C129.726 70.7786 127.838 70.5583 126.032 70.1177C124.266 69.6771 122.624 69.1163 121.106 68.4354C119.587 67.7144 118.232 66.9733 117.041 66.2123L119.689 61.6459C120.674 62.3269 121.803 62.9878 123.076 63.6287C124.349 64.2295 125.683 64.7302 127.078 65.1308C128.474 65.4913 129.829 65.6715 131.142 65.6715C132.538 65.6715 133.913 65.4312 135.268 64.9505C136.664 64.4298 137.813 63.6487 138.716 62.6073C139.619 61.5658 140.071 60.1839 140.071 58.4615C140.071 56.9794 139.661 55.7577 138.84 54.7964C138.06 53.795 137.013 52.9538 135.699 52.2729C134.385 51.5519 132.99 50.911 131.512 50.3502C130.116 49.8295 128.7 49.2687 127.263 48.6679C125.826 48.027 124.492 47.2659 123.261 46.3847C122.029 45.4634 121.044 44.3418 120.305 43.02C119.566 41.6982 119.197 40.0959 119.197 38.2133C119.197 35.9301 119.751 33.9474 120.859 32.265C122.009 30.5426 123.569 29.2008 125.539 28.2394C127.509 27.238 129.767 26.6973 132.312 26.6172C135.186 26.6172 137.711 26.9576 139.886 27.6386C142.103 28.3195 144.053 29.1607 145.736 30.1621L143.458 34.6083Z" fill="#0E58A5"/>
<path d="M159.777 62.4269C159.777 65.9518 159.08 68.956 157.684 71.4394C156.329 73.9229 154.461 75.8055 152.08 77.0873C149.699 78.4091 146.97 79.1301 143.891 79.2503V73.6025C146.764 73.4422 149.125 72.4408 150.972 70.5983C152.86 68.7958 153.804 66.0119 153.804 62.2467V26.8574H159.777V62.4269Z" fill="#0E58A5"/>
<path d="M166.441 26.8574H172.414V70.2979H166.441V26.8574Z" fill="#0E58A5"/>
<path d="M179.047 70.298V25.4756H179.109L202.446 57.8006L199.921 57.3199L223.197 25.4756H223.32V70.298H217.409V38.694L217.779 41.6381L200.968 64.8303H200.845L183.788 41.6381L184.835 38.9343V70.298H179.047Z" fill="#0E58A5"/>
<path d="M23.0917 39.6551C39.1016 14.1196 65.8874 3.60495 64.9637 28.8401C64.0401 54.0752 52.9563 70.2977 32.3282 73.6023C11.7001 76.907 24.8364 52.8735 39.1016 49.5689" stroke="url(#paint0_linear_219_1990)" stroke-width="9"/>
<path d="M38.9824 54.1001C41.4677 54.1001 43.4824 52.0854 43.4824 49.6001C43.4824 47.1148 41.4677 45.1001 38.9824 45.1001C36.4971 45.1001 34.4824 47.1148 34.4824 49.6001C34.4824 52.0854 36.4971 54.1001 38.9824 54.1001Z" fill="#095CAE"/>
<path d="M23.1992 44C25.6845 44 27.6992 41.9853 27.6992 39.5C27.6992 37.0147 25.6845 35 23.1992 35C20.7139 35 18.6992 37.0147 18.6992 39.5C18.6992 41.9853 20.7139 44 23.1992 44Z" fill="#075EB2"/>
<defs>
<linearGradient id="paint0_linear_219_1990" x1="5.69634" y1="41.3075" x2="80.5116" y2="41.4652" gradientUnits="userSpaceOnUse">
<stop stop-color="#0062BD"/>
<stop offset="1" stop-color="#175094"/>
</linearGradient>
</defs>
</svg>
