<svg width="125" height="66" viewBox="0 0 125 66" fill="none" xmlns="http://www.w3.org/2000/svg">
<path d="M32.8086 8.83203C32.8086 10.4336 32.4082 11.9277 31.6074 13.3145C30.8262 14.7012 29.8008 15.9023 28.5312 16.918C27.2812 17.9336 25.8848 18.7344 24.3418 19.3203C22.7988 19.8867 21.2754 20.1504 19.7715 20.1113H19.3027V19.584C20.5918 19.3105 21.8027 18.8418 22.9355 18.1777C24.0879 17.4941 25.084 16.6641 25.9238 15.6875C26.7832 14.7109 27.457 13.6172 27.9453 12.4062C28.4531 11.1953 28.707 9.92578 28.707 8.59766C28.707 7.71875 28.5996 6.88867 28.3848 6.10742C28.1699 5.32617 27.8379 4.65234 27.3887 4.08594C26.9395 3.51953 26.3633 3.07031 25.6602 2.73828C24.9766 2.40625 24.1562 2.24023 23.1992 2.24023C21.832 2.24023 20.4453 2.44531 19.0391 2.85547C17.6328 3.26562 16.2754 3.8418 14.9668 4.58398C13.6582 5.32617 12.4277 6.20508 11.2754 7.2207C10.1426 8.23633 9.14648 9.34961 8.28711 10.5605C7.44727 11.7715 6.7832 13.0605 6.29492 14.4277C5.80664 15.7949 5.5625 17.1914 5.5625 18.6172C5.5625 20.1406 5.77734 21.459 6.20703 22.5723C6.65625 23.666 7.25195 24.6328 7.99414 25.4727C8.75586 26.293 9.63477 26.9961 10.6309 27.582C11.627 28.168 12.6914 28.7051 13.8242 29.1934C14.957 29.6621 16.1094 30.1016 17.2812 30.5117C18.4727 30.9219 19.6348 31.3613 20.7676 31.8301C21.9004 32.2988 22.9648 32.8262 23.9609 33.4121C24.957 33.9785 25.8262 34.6621 26.5684 35.4629C27.3301 36.2441 27.9258 37.1816 28.3555 38.2754C28.8047 39.3496 29.0293 40.6191 29.0293 42.084C29.0293 43.6855 28.6973 45.1113 28.0332 46.3613C27.3887 47.6113 26.5293 48.6562 25.4551 49.4961C24.3809 50.3555 23.1504 51 21.7637 51.4297C20.377 51.8789 18.9512 52.1035 17.4863 52.1035C15.9043 52.1035 14.4395 51.8301 13.0918 51.2832C11.7441 50.7559 10.5332 50.0332 9.45898 49.1152C8.38477 48.2168 7.44727 47.1719 6.64648 45.9805C5.8457 44.8086 5.20117 43.5879 4.71289 42.3184L5.15234 42.084C5.73828 43.1191 6.41211 44.1348 7.17383 45.1309C7.93555 46.1465 8.79492 47.0449 9.75195 47.8262C10.709 48.627 11.7637 49.2715 12.916 49.7598C14.0879 50.248 15.3574 50.4922 16.7246 50.4922C17.8379 50.4922 18.873 50.3359 19.8301 50.0234C20.7871 49.7109 21.6172 49.2617 22.3203 48.6758C23.0234 48.0898 23.5703 47.3672 23.9609 46.5078C24.3711 45.6484 24.5762 44.6719 24.5762 43.5781C24.5762 41.9766 24.2344 40.6582 23.5508 39.623C22.8672 38.5879 21.9688 37.709 20.8555 36.9863C19.7422 36.2637 18.4727 35.6484 17.0469 35.1406C15.6211 34.6328 14.1562 34.125 12.6523 33.6172C11.168 33.0898 9.71289 32.5039 8.28711 31.8594C6.86133 31.1953 5.5918 30.3652 4.47852 29.3691C3.36523 28.373 2.4668 27.1426 1.7832 25.6777C1.09961 24.1934 0.757812 22.377 0.757812 20.2285C0.757812 18.2754 1.06055 16.4395 1.66602 14.7207C2.27148 12.9824 3.10156 11.3906 4.15625 9.94531C5.23047 8.5 6.49023 7.21094 7.93555 6.07812C9.38086 4.92578 10.9336 3.94922 12.5938 3.14844C14.2734 2.34766 16.0215 1.74219 17.8379 1.33203C19.6543 0.902344 21.4805 0.6875 23.3164 0.6875C24.625 0.6875 25.8555 0.84375 27.0078 1.15625C28.1797 1.46875 29.1855 1.95703 30.0254 2.62109C30.8848 3.26562 31.5586 4.10547 32.0469 5.14062C32.5547 6.17578 32.8086 7.40625 32.8086 8.83203Z" fill="url(#paint0_linear_244_305)"/>
<path d="M50.3691 32.3574C50.3691 33.7246 50.1445 34.9941 49.6953 36.166C49.2461 37.3379 48.6113 38.3535 47.791 39.2129C46.9707 40.0723 45.9844 40.7461 44.832 41.2344C43.6992 41.7227 42.4395 41.9668 41.0527 41.9668C39.8223 41.9668 38.709 41.7324 37.7129 41.2637C36.7363 40.8145 35.8965 40.1992 35.1934 39.418C34.4902 38.6367 33.9531 37.7285 33.582 36.6934C33.2109 35.6387 33.0254 34.5156 33.0254 33.3242C33.0254 32.3281 33.1621 31.3809 33.4355 30.4824C33.7285 29.584 34.1289 28.7539 34.6367 27.9922C35.1445 27.2109 35.75 26.498 36.4531 25.8535C37.1562 25.1895 37.918 24.5938 38.7383 24.0664L39.0898 24.3301C38.2695 25.2871 37.625 26.3418 37.1562 27.4941C36.6875 28.6465 36.4531 29.8672 36.4531 31.1562C36.4531 32.0938 36.5898 33.0508 36.8633 34.0273C37.1562 34.9844 37.5762 35.8633 38.123 36.6641C38.6699 37.4648 39.3535 38.1191 40.1738 38.627C40.9941 39.1348 41.9316 39.3887 42.9863 39.3887C43.6504 39.3887 44.2754 39.252 44.8613 38.9785C45.4473 38.7051 45.9551 38.334 46.3848 37.8652C46.834 37.3965 47.1855 36.8691 47.4395 36.2832C47.7129 35.6777 47.8496 35.0527 47.8496 34.4082C47.8496 33.7832 47.752 33.1777 47.5566 32.5918C47.3809 31.9863 47.127 31.4297 46.7949 30.9219C46.4629 30.3945 46.0625 29.9258 45.5938 29.5156C45.125 29.0859 44.6172 28.7344 44.0703 28.4609C43.7578 28.3047 43.4551 28.1875 43.1621 28.1094C42.8887 28.0312 42.5859 27.9434 42.2539 27.8457C42.1172 27.8262 41.9707 27.7969 41.8145 27.7578C41.6582 27.6992 41.5117 27.6406 41.375 27.582C41.2383 27.5039 41.1211 27.4062 41.0234 27.2891C40.9258 27.1719 40.877 27.0254 40.877 26.8496C40.877 26.498 41.0039 26.1758 41.2578 25.8828C41.5117 25.5898 41.8145 25.3359 42.166 25.1211C42.5176 24.8867 42.8887 24.7109 43.2793 24.5938C43.6699 24.457 44.0117 24.3887 44.3047 24.3887C45.3008 24.3887 46.1797 24.6426 46.9414 25.1504C47.7031 25.6582 48.3379 26.3027 48.8457 27.084C49.3535 27.8652 49.7344 28.7246 49.9883 29.6621C50.2422 30.5996 50.3691 31.498 50.3691 32.3574Z" fill="url(#paint1_radial_244_305)"/>
<path d="M72.1562 36.8105C71.6484 37.5527 71.0332 38.2461 70.3105 38.8906C69.6074 39.5352 68.8262 40.0918 67.9668 40.5605C67.127 41.0293 66.2383 41.4004 65.3008 41.6738C64.3828 41.9473 63.4551 42.084 62.5176 42.084C61.1895 42.084 59.9492 41.9082 58.7969 41.5566C57.6445 41.2246 56.6387 40.707 55.7793 40.0039C54.9199 39.3008 54.2461 38.4219 53.7578 37.3672C53.2695 36.293 53.0254 35.043 53.0254 33.6172C53.0254 32.2109 53.2793 30.9023 53.7871 29.6914C54.3145 28.4609 55.0273 27.3965 55.9258 26.498C56.8438 25.5801 57.918 24.8574 59.1484 24.3301C60.3789 23.8027 61.6973 23.5391 63.1035 23.5391C63.7676 23.5391 64.3828 23.6367 64.9492 23.832C65.5352 24.0078 66.043 24.2812 66.4727 24.6523C66.9023 25.0039 67.2344 25.4434 67.4688 25.9707C67.7227 26.498 67.8496 27.1035 67.8496 27.7871C67.8496 28.6074 67.6836 29.3301 67.3516 29.9551C67.0195 30.5801 66.5801 31.127 66.0332 31.5957C65.4863 32.0645 64.8613 32.4551 64.1582 32.7676C63.4746 33.0801 62.752 33.334 61.9902 33.5293C61.248 33.7246 60.5059 33.8711 59.7637 33.9688C59.041 34.0469 58.377 34.0859 57.7715 34.0859H57.0684C57.3223 35.8633 58.0254 37.2207 59.1777 38.1582C60.3301 39.0957 61.9219 39.5645 63.9531 39.5645C65.3984 39.5645 66.8047 39.3105 68.1719 38.8027C69.5586 38.2949 70.8086 37.5918 71.9219 36.6934L72.1562 36.8105ZM56.9805 33.207H57.7129C58.416 33.207 59.1387 33.0996 59.8809 32.8848C60.623 32.6504 61.2871 32.3184 61.873 31.8887C62.4785 31.4395 62.9766 30.8926 63.3672 30.248C63.7578 29.6035 63.9531 28.8711 63.9531 28.0508C63.9531 27.25 63.7773 26.5859 63.4258 26.0586C63.0938 25.5312 62.5078 25.2676 61.668 25.2676C60.8086 25.2676 60.0762 25.5312 59.4707 26.0586C58.8848 26.5664 58.4062 27.2012 58.0352 27.9629C57.6641 28.7051 57.3906 29.4961 57.2148 30.3359C57.0586 31.1562 56.9805 31.8887 56.9805 32.5332V33.207Z" fill="url(#paint2_linear_244_305)"/>
<path d="M87.3145 37.7773C86.6895 39.0664 85.8105 40.0918 84.6777 40.8535C83.5449 41.5957 82.2559 41.9668 80.8105 41.9668C79.6191 41.9668 78.5547 41.6055 77.6172 40.8828C76.6797 40.1602 75.8496 39.2129 75.127 38.041C74.4238 36.8691 73.8184 35.5508 73.3105 34.0859C72.8223 32.6016 72.4121 31.0977 72.0801 29.5742C71.7676 28.0508 71.5332 26.5859 71.377 25.1797C71.2402 23.7539 71.1719 22.5137 71.1719 21.459C71.1719 20.1699 71.2402 18.7539 71.377 17.2109C71.5137 15.668 71.7383 14.1152 72.0508 12.5527C72.3633 10.9707 72.7637 9.4375 73.252 7.95312C73.7598 6.46875 74.3652 5.16016 75.0684 4.02734C75.791 2.875 76.6211 1.95703 77.5586 1.27344C78.4961 0.570312 79.5703 0.21875 80.7812 0.21875C81.8164 0.21875 82.6562 0.521484 83.3008 1.12695C83.9453 1.73242 84.4531 2.48438 84.8242 3.38281C85.1953 4.26172 85.4395 5.19922 85.5566 6.19531C85.6934 7.19141 85.7617 8.08008 85.7617 8.86133C85.7617 10.9707 85.5078 13.0508 85 15.1016C84.5117 17.1328 83.8281 19.0566 82.9492 20.873C82.0898 22.6699 81.0742 24.3105 79.9023 25.7949C78.7305 27.2598 77.4707 28.4902 76.123 29.4863C76.3965 30.7949 76.7188 32.0742 77.0898 33.3242C77.4805 34.5547 77.9492 35.6582 78.4961 36.6348C79.043 37.5918 79.668 38.373 80.3711 38.9785C81.0938 39.5645 81.9141 39.8574 82.832 39.8574C83.75 39.8574 84.541 39.6719 85.2051 39.3008C85.8691 38.9297 86.4844 38.3828 87.0508 37.6602L87.3145 37.7773ZM75.2441 19.7012C75.2246 20.1309 75.2148 20.6582 75.2148 21.2832C75.2344 21.9082 75.2637 22.6016 75.3027 23.3633C75.3613 24.1055 75.4395 24.9062 75.5371 25.7656C75.6348 26.625 75.7617 27.5039 75.918 28.4023C77.2266 27.2305 78.3398 25.9316 79.2578 24.5059C80.1758 23.0801 80.9277 21.5469 81.5137 19.9062C82.0996 18.2461 82.5195 16.5078 82.7734 14.6914C83.0469 12.8555 83.1836 10.9512 83.1836 8.97852C83.1836 8.72461 83.1738 8.39258 83.1543 7.98242C83.1543 7.57227 83.125 7.13281 83.0664 6.66406C83.0078 6.19531 82.9199 5.72656 82.8027 5.25781C82.7051 4.78906 82.5586 4.36914 82.3633 3.99805C82.1875 3.60742 81.9531 3.29492 81.6602 3.06055C81.3867 2.80664 81.0547 2.67969 80.6641 2.67969C79.9219 2.67969 79.2676 3.05078 78.7012 3.79297C78.1543 4.51562 77.6758 5.44336 77.2656 6.57617C76.875 7.70898 76.543 8.95898 76.2695 10.3262C76.0156 11.6934 75.8105 13.0117 75.6543 14.2812C75.498 15.5312 75.3906 16.6543 75.332 17.6504C75.2734 18.6465 75.2441 19.3301 75.2441 19.7012Z" fill="url(#paint3_linear_244_305)"/>
<path d="M106.273 30.6289C106.273 31.7227 106.059 32.8652 105.629 34.0566C105.219 35.2285 104.643 36.3027 103.9 37.2793C103.158 38.2559 102.27 39.0664 101.234 39.7109C100.219 40.3359 99.1055 40.6484 97.8945 40.6484C97.4648 40.6484 97.0254 40.5801 96.5762 40.4434C96.1465 40.2871 95.7461 40.0723 95.375 39.7988C95.0234 39.5059 94.7305 39.1641 94.4961 38.7734C94.2812 38.3828 94.1738 37.9434 94.1738 37.4551C94.1738 37.2207 94.2715 37.0254 94.4668 36.8691C94.6621 36.6934 94.877 36.6055 95.1113 36.6055C95.4043 36.6055 95.6484 36.752 95.8438 37.0449C96.0586 37.3379 96.2832 37.6602 96.5176 38.0117C96.7715 38.3438 97.0645 38.6562 97.3965 38.9492C97.748 39.2422 98.207 39.3887 98.7734 39.3887C99.4766 39.3887 100.102 39.1543 100.648 38.6855C101.195 38.1973 101.654 37.6113 102.025 36.9277C102.396 36.2441 102.68 35.5215 102.875 34.7598C103.07 33.9785 103.168 33.2949 103.168 32.709C103.168 31.9668 103.07 31.2344 102.875 30.5117C102.68 29.7891 102.377 29.1543 101.967 28.6074C101.576 28.041 101.068 27.5918 100.443 27.2598C99.8379 26.9082 99.125 26.7324 98.3047 26.7324C97.3477 26.7324 96.5371 27.0547 95.873 27.6992C95.2285 28.3438 94.6914 29.1738 94.2617 30.1895C93.8516 31.1855 93.5293 32.3086 93.2949 33.5586C93.0801 34.8086 92.9141 36.0488 92.7969 37.2793C92.6992 38.4902 92.6406 39.6133 92.6211 40.6484C92.6016 41.6836 92.5918 42.5039 92.5918 43.1094C92.5918 45.9414 92.5137 48.4902 92.3574 50.7559C92.2012 53.041 91.9863 55.1016 91.7129 56.9375C91.4395 58.7734 91.1172 60.3945 90.7461 61.8008C90.375 63.2266 89.9746 64.4961 89.5449 65.6094H88.8125V51.6055C88.8125 47.3281 88.7344 43.0801 88.5781 38.8613C88.4219 34.623 88.3438 30.3555 88.3438 26.0586C88.3438 25.6094 88.4316 25.2383 88.6074 24.9453C88.8027 24.6328 89.0469 24.3789 89.3398 24.1836C89.6523 23.9883 90.0039 23.8516 90.3945 23.7734C90.7852 23.6953 91.1855 23.6562 91.5957 23.6562C91.7129 23.6562 91.9082 23.6855 92.1816 23.7441C92.4551 23.7832 92.5918 23.8906 92.5918 24.0664C92.5918 25.4336 92.582 26.7812 92.5625 28.1094C92.543 29.4375 92.5137 30.7754 92.4746 32.123C92.748 31.1855 93.0996 30.2188 93.5293 29.2227C93.959 28.207 94.4863 27.2891 95.1113 26.4688C95.7363 25.6484 96.4785 24.9746 97.3379 24.4473C98.1973 23.9199 99.2031 23.6562 100.355 23.6562C101.332 23.6562 102.182 23.8516 102.904 24.2422C103.646 24.6328 104.262 25.1504 104.75 25.7949C105.258 26.4395 105.639 27.1816 105.893 28.0215C106.146 28.8613 106.273 29.7305 106.273 30.6289Z" fill="url(#paint4_linear_244_305)"/>
<path d="M116.32 17.3574C116.32 17.748 116.232 18.1387 116.057 18.5293C115.881 18.9199 115.646 19.2715 115.354 19.584C115.08 19.877 114.758 20.1211 114.387 20.3164C114.016 20.5117 113.635 20.6094 113.244 20.6094C112.736 20.6094 112.326 20.4434 112.014 20.1113C111.721 19.7793 111.574 19.3594 111.574 18.8516C111.574 18.4609 111.662 18.0801 111.838 17.709C112.014 17.3184 112.238 16.9766 112.512 16.6836C112.805 16.3906 113.127 16.1562 113.479 15.9805C113.85 15.7852 114.23 15.6875 114.621 15.6875C115.129 15.6875 115.539 15.8438 115.852 16.1562C116.164 16.4688 116.32 16.8691 116.32 17.3574ZM124.523 36.8105C124.074 37.5527 123.537 38.2363 122.912 38.8613C122.307 39.4668 121.633 40.0039 120.891 40.4727C120.168 40.9219 119.387 41.2734 118.547 41.5273C117.727 41.7812 116.877 41.9082 115.998 41.9082C114.904 41.9082 113.928 41.7227 113.068 41.3516C112.229 40.9805 111.516 40.4727 110.93 39.8281C110.363 39.1641 109.924 38.3926 109.611 37.5137C109.318 36.6152 109.172 35.6387 109.172 34.584C109.172 33.4512 109.338 32.377 109.67 31.3613C110.002 30.3457 110.461 29.3984 111.047 28.5195C111.633 27.6211 112.316 26.8008 113.098 26.0586C113.898 25.3164 114.748 24.6523 115.646 24.0664L115.998 24.3301C115.041 25.4629 114.26 26.7324 113.654 28.1387C113.068 29.5449 112.775 31.0098 112.775 32.5332C112.775 33.4121 112.873 34.2617 113.068 35.082C113.283 35.8828 113.605 36.5957 114.035 37.2207C114.484 37.8457 115.051 38.3438 115.734 38.7148C116.418 39.0859 117.248 39.2715 118.225 39.2715C119.377 39.2715 120.471 39.0273 121.506 38.5391C122.561 38.0508 123.508 37.4355 124.348 36.6934L124.523 36.8105Z" fill="url(#paint5_linear_244_305)"/>
<defs>
<linearGradient id="paint0_linear_244_305" x1="10.3215" y1="27.0289" x2="109.674" y2="67.4507" gradientUnits="userSpaceOnUse">
<stop offset="0.770833" stop-color="#377CC5"/>
<stop offset="1" stop-color="#DFF4FF"/>
</linearGradient>
<radialGradient id="paint1_radial_244_305" cx="0" cy="0" r="1" gradientUnits="userSpaceOnUse" gradientTransform="translate(62.6406 32.9141) rotate(90) scale(32.6953 61.8828)">
<stop stop-color="#2570C8"/>
<stop offset="1" stop-color="white"/>
</radialGradient>
<linearGradient id="paint2_linear_244_305" x1="124.523" y1="32.9141" x2="0.757808" y2="32.9141" gradientUnits="userSpaceOnUse">
<stop offset="0.473958" stop-color="#377CC5"/>
<stop offset="1" stop-color="#CEEDFF"/>
</linearGradient>
<linearGradient id="paint3_linear_244_305" x1="124.523" y1="32.9141" x2="0.75781" y2="32.9141" gradientUnits="userSpaceOnUse">
<stop offset="0.583333" stop-color="#377CC5"/>
<stop offset="1" stop-color="#387DC5" stop-opacity="0.9"/>
</linearGradient>
<linearGradient id="paint4_linear_244_305" x1="124.523" y1="46.5371" x2="21.3854" y2="46.5371" gradientUnits="userSpaceOnUse">
<stop offset="0.796875" stop-color="#377CC5"/>
<stop offset="1" stop-color="#377CC5" stop-opacity="0.95"/>
</linearGradient>
<linearGradient id="paint5_linear_244_305" x1="115" y1="48.7778" x2="115" y2="2.55555" gradientUnits="userSpaceOnUse">
<stop offset="0.604167" stop-color="#377CC5"/>
</linearGradient>
</defs>
</svg>
