<svg width="32" height="32" viewBox="0 0 32 32" fill="none" xmlns="http://www.w3.org/2000/svg">
<path d="M26.1767 10.6629C26.194 10.8962 26.194 11.1282 26.194 11.3602C26.194 18.4602 20.79 26.6416 10.914 26.6416C7.87135 26.6416 5.04468 25.7602 2.66602 24.2296C3.09802 24.2789 3.51402 24.2962 3.96335 24.2962C6.38067 24.3021 8.72954 23.4937 10.6313 22.0016C9.51058 21.9813 8.42412 21.6115 7.52367 20.9439C6.62322 20.2762 5.95373 19.3441 5.60868 18.2776C5.94068 18.3269 6.27402 18.3602 6.62335 18.3602C7.10468 18.3602 7.58868 18.2936 8.03802 18.1776C6.8217 17.932 5.72798 17.2727 4.94284 16.3118C4.1577 15.3509 3.72961 14.1478 3.73135 12.9069V12.8402C4.44735 13.2389 5.27802 13.4882 6.15802 13.5216C5.4208 13.0317 4.81631 12.3669 4.39847 11.5866C3.98063 10.8063 3.76243 9.93469 3.76335 9.04955C3.76335 8.05222 4.02868 7.13755 4.49402 6.34022C5.84353 8.00025 7.52669 9.3583 9.43446 10.3264C11.3422 11.2946 13.4321 11.8512 15.5687 11.9602C15.486 11.5602 15.4353 11.1456 15.4353 10.7296C15.435 10.0242 15.5737 9.32563 15.8435 8.67387C16.1132 8.02212 16.5088 7.42992 17.0076 6.93114C17.5064 6.43236 18.0986 6.03677 18.7503 5.76699C19.4021 5.49721 20.1006 5.35854 20.806 5.35889C22.3527 5.35889 23.7487 6.00689 24.73 7.05489C25.9324 6.82238 27.0854 6.38345 28.138 5.75755C27.7372 6.99864 26.8977 8.05103 25.7767 8.71755C26.8431 8.59593 27.8853 8.31549 28.8687 7.88555C28.1342 8.95635 27.224 9.89535 26.1767 10.6629Z" fill="white"/>
</svg>
